<?xml version="1.0" encoding="UTF-8"?>
<svg width="94.192mm" height="70.644mm" version="1.1" viewBox="0 0 94.192 70.644" xmlns="http://www.w3.org/2000/svg">
 <g transform="translate(-97.291 23.983)">
  <path d="m151.45 28.929c0-0.0966 0.0322-0.19318 0-0.28977-0.0644-0.0966-0.0966-0.16098-0.16099-0.22537-0.16098-0.19318-0.32196-0.35416-0.51513-0.54733l-1.8996-1.9318 1.481-1.5132 0.8049-0.86929c0.12878-0.12878 0.28977-0.38635 0.28977-0.57953v-0.12878c0-0.28976-0.12879-0.45075-0.41855-0.51513l0.0644 0.0322h-0.22537c-0.19318 0-0.7405 0.51513-0.8693 0.6761-0.48293 0.48295-0.80489 0.93368-1.4488 1.4166v-3.8313c0-0.35417-0.19317-0.51514-0.54732-0.51514h-0.0966c-0.35417 0-0.64392 0.16097-0.64392 0.51514v8.3387c0 0.35416 0.28975 0.48294 0.64392 0.48294h0.0966c0.35415 0 0.54732-0.16098 0.54732-0.48294v-1.481l0.96587 0.93367c0.28977 0.28977 0.57953 0.48295 0.8371 0.74052 0.12878 0.12878 0.38635 0.28976 0.57951 0.28976h0.0966c0.32197 0 0.41855-0.16098 0.48295-0.41855l-0.0644 0.0322zm12.589-6.568h-0.12878c-0.70831 0-1.3522 0.19317-1.9318 0.61171-0.96587 0.70832-1.5132 1.642-1.5132 2.8654v3.1552c0 0.35417 0.12878 0.45075 0.48294 0.45075h0.0966c0.35416 0 0.70831-0.12878 0.70831-0.45075v-2.962c0-0.64392 0.12878-1.2556 0.61173-1.7386 0.38635-0.38635 0.86927-0.70832 1.4166-0.70832 0.41855 0 0.9015-0.0966 0.9015-0.61172 0-0.38635-0.28977-0.61171-0.64392-0.61171zm-4.9582 1.6098c-0.35417-0.57952-0.83711-1.0303-1.4488-1.32-1.1269-0.54733-2.3181-0.61173-3.4128 0.0322l-0.16098 0.0966c-0.45075 0.25757-0.8371 0.57953-1.1269 0.99807-0.83709 1.2235-0.93367 2.6079-0.19317 3.8957l0.0644 0.12879c0.32196 0.54733 0.7405 0.99806 1.2878 1.2878 1.159 0.64392 2.4147 0.7083 3.5738 0.0644l0.0966-0.0644c0.32196-0.19318 0.38635-0.51513 0.22537-0.8371-0.0644-0.12878-0.19317-0.22537-0.32196-0.28975h-0.0644c-0.22537-0.0323-0.8371 0.22537-1.0624 0.32195-0.45075 0.0644-0.96588 0.0966-1.4166-0.0644l2.4469-2.1249c0.35415-0.32195 0.7405-0.67612 1.1269-0.96587 0.32197-0.25758 0.64392-0.61173 0.38635-1.0625zm-2.2215 1.1591-2.7366 2.3503c-0.0966-0.0966-0.16097-0.22538-0.22538-0.32196-0.19317-0.32195-0.32195-0.70832-0.32195-1.0947-0.0323-0.96587 0.32195-1.7708 1.1912-2.2537 0.64393-0.38635 1.3522-0.45075 2.0606-0.19318 0.35415 0.12878 0.77269 0.35415 0.99806 0.67612-0.32196 0.28976-0.67611 0.54733-0.96587 0.83709zm-26.014-5.0226h-0.0966c-0.35415 0-0.54732 0.12879-0.54732 0.48294v2.6079c-0.64392-0.57952-1.4166-0.8049-2.3181-0.8049h-0.25756c-0.61173 0-1.1912 0.0966-1.7386 0.41855-1.159 0.67612-1.803 1.6742-1.803 3.0264v0.25756c0 0.61173 0.16098 1.1269 0.48294 1.6742 0.67611 1.159 1.7386 1.7386 3.0586 1.7386h0.25756c0.61172 0 1.2556-0.0966 1.7708-0.38635 1.159-0.67612 1.8352-1.6742 1.8352-2.9942v-5.4733c0-0.41854-0.28976-0.54733-0.64392-0.54733zm-0.99807 7.0187c-0.48294 0.8049-1.1912 1.2557-2.1249 1.2557-0.38635 0-0.7727-0.0966-1.0946-0.28977-0.8371-0.45075-1.32-1.1912-1.32-2.1571 0-0.35415 0.0644-0.6761 0.22537-0.99807 0.45075-0.93368 1.1912-1.4488 2.2215-1.4488 0.51513 0 0.96588 0.16098 1.3522 0.45074 0.67611 0.48294 1.0625 1.1269 1.0625 1.964 0.0322 0.45074-0.0966 0.83709-0.32196 1.2234zm6.0206-4.765h-0.19317c-0.61173 0-1.2234 0.0966-1.7386 0.41853-1.159 0.67612-1.803 1.6742-1.803 3.0264v0.25755c0 0.61173 0.16098 1.1269 0.48294 1.6742 0.67611 1.159 1.7386 1.7386 3.0908 1.7386h0.25757c0.61172 0 1.2234-0.0966 1.7708-0.38636 1.159-0.67611 1.8352-1.6742 1.8352-2.9942v-0.25756c0-0.57952-0.19318-1.0625-0.45074-1.5454-0.70831-1.2878-1.8352-1.9317-3.2518-1.9317zm2.0605 4.765c-0.48294 0.77271-1.159 1.2557-2.0927 1.2557-0.41855 0-0.8371-0.0966-1.2234-0.32197-0.80489-0.48293-1.2556-1.159-1.2556-2.0927 0-0.35415 0.0644-0.67612 0.22537-0.99807 0.45075-0.93368 1.1912-1.4488 2.2215-1.4488 0.48294 0 0.90149 0.12878 1.2878 0.38635 0.7083 0.48293 1.1268 1.159 1.1268 2.0283 0.0322 0.38636-0.0644 0.8049-0.28976 1.1912zm7.888-4.3142-0.0323 0.0323c-0.54734-0.35415-1.159-0.48293-1.803-0.48293h-0.25757c-0.61172 0-1.2234 0.0966-1.7386 0.41853-1.1591 0.67612-1.803 1.6742-1.803 2.9942v0.25757c0 0.32195 0.0644 0.61172 0.12878 0.93368 0.51513 1.7708 1.8996 2.7688 3.7669 2.64 0.51514-0.0322 1.8996-0.19317 1.8996-0.96587v-0.12878c0-0.28977-0.22538-0.54733-0.48295-0.61173l-0.0323-0.0644h-0.22537l-0.0644 0.0966c-0.28976 0.12878-0.7727 0.38635-1.0947 0.38635-0.38635 0-0.8049 0-1.159-0.19317-0.93368-0.45075-1.481-1.1912-1.481-2.2215 0-0.35415 0.0644-0.6761 0.22537-0.99807 0.45075-0.90148 1.1912-1.481 2.2215-1.4488 0.19317 0 0.54733 0.0966 0.7405 0.19318 0.16098 0.0644 0.57953 0.32195 0.7727 0.32195h0.0644l0.0323-0.0644c0.28977-0.0644 0.51513-0.28976 0.51513-0.57953v-0.12878c0-0.12877-0.0644-0.22537-0.12877-0.32195zm-20.187-10.045 0.0322 0.0644c2.5435 4.3142 6.9865 6.1172 11.848 6.1172 9.4012 0 17.16-4.2177 20.702-13.072 2.3825 0.12878 4.8294-0.57953 5.9884-2.8654l0.28975-0.57953-0.57952-0.32195c-1.3844-0.8049-3.2196-0.90149-4.765-0.45075-0.19317-1.6742-1.2878-3.123-2.5757-4.1533l-0.51512-0.41854-0.41856 0.51513c-0.8693 0.99808-1.1268 2.6723-0.99808 3.9601 0.0966 0.93369 0.38635 1.8996 0.96588 2.6723-0.45075 0.25756-0.93368 0.61171-1.3844 0.7727-0.90148 0.32195-1.8996 0.64391-2.8654 0.64391h-2.1571v-4.5396h-4.1854v-8.049h-4.8294v3.8635h-8.049v4.1855h-4.1855v4.5074h-3.6059l-0.0644 0.48294c-0.16098 2.0605 0.0966 4.0567 0.96588 5.9562zm19.382-10.689h3.5416v3.5415h-3.5416zm-4.1855-8.3709h3.5415v3.5416h-3.5415zm0 4.1855h3.5415v3.5416h-3.5415zm0 4.1855h3.5415v3.5415h-3.5415zm-4.1855-4.1855h3.5416v3.5416h-3.5416zm0 4.1855h3.5416v3.5415h-3.5416zm0.35416 10.045c0 0.54733-0.45075 0.99806-0.99808 0.99806s-0.99807-0.45073-0.99807-0.99806c0-0.54734 0.45074-0.99807 0.99807-0.99807 0.54733 0.0322 0.99808 0.45073 0.99808 0.99807zm-4.2177-14.231h3.2196v3.5416h-3.2196zm0 4.1855h3.2196v3.5415h-3.2196zm-4.1855 0h3.5416v3.5415h-3.5416zm0.7727 12.234c0.51514 0 1.0303 0 1.5132-0.0323 1.2556-0.0644 2.3503-0.22537 3.2518-0.48293 0.74051 1.7064 2.0927 3.284 4.5074 4.443l-1.1269 0.0323c-5.087-0.0323-7.8236-1.7386-10.077-3.9923 0.67612 0.0322 1.32 0.0322 1.9318 0.0322zm6.6324-1.481c0.38636 0 0.70832-0.32195 0.70832-0.7083 0-0.0966-0.0322-0.19318-0.0644-0.25757-0.0644 0.0966-0.12879 0.16098-0.25757 0.16098-0.16098 0-0.28976-0.12878-0.28976-0.28976 0-0.0966 0.0644-0.19318 0.12878-0.25757-0.0322-0.0322-0.12878-0.0644-0.22537-0.0644-0.38635 0-0.70831 0.32195-0.70831 0.7083 0.0322 0.38635 0.32196 0.70832 0.70831 0.70832z" fill="#01baef" stroke-width=".32196"/>
 </g>
</svg>
