<?xml version="1.0" encoding="UTF-8"?>
<svg width="253.71" height="56.693" version="1.1" viewBox="0 0 253.71 56.693" xml:space="preserve" xmlns="http://www.w3.org/2000/svg" xmlns:cc="http://creativecommons.org/ns#" xmlns:dc="http://purl.org/dc/elements/1.1/" xmlns:rdf="http://www.w3.org/1999/02/22-rdf-syntax-ns#"><metadata><rdf:RDF><cc:Work rdf:about=""><dc:format>image/svg+xml</dc:format><dc:type rdf:resource="http://purl.org/dc/dcmitype/StillImage"/><dc:title/></cc:Work></rdf:RDF></metadata><g transform="matrix(1.3333 0 0 -1.3333 0 56.693)"><g transform="scale(.1)" fill="#0c3357"><path d="m85.039 170.09h-85.039v-85.051h85.039l85.043 85.051v85.027l-85.043-85.027"/><path d="m255.12 85.059v85.031l-85.039-85.031h-85.039v-85.059h85.039l85.039 85.059"/><path d="m170.08 425.2-85.039-85.039h-85.043v-85.051h85.043l85.039 85.051v85.039"/><path d="m340.16 425.2-85.039-85.039h-85.035v-85.051h85.035l85.039 85.051v85.039"/><path d="m425.2 255.1v85.051l-85.039-85.051h-85.039v-85.027h85.039l85.039 85.027"/><path d="m425.2 85.059v85.031l-85.039-85.031h-85.039v-85.039h85.039l85.039 85.039"/><path d="m532.95 228.48c0-3.008-0.488-3.528-3.34-3.528h-15.781c-2.828 0-3.519 0.52-3.519 3.528v107.83c0 3.015 0.691 3.515 3.519 3.515h55.02c3.34 0 4.179-0.332 4.179-1.836 0-0.84-0.156-1.172-0.488-2.343l-3.199-11.243c-0.672-2.507-2.5-2.683-3.852-2.683h-32.539v-27.668h28.52c3 0 3.511-0.496 3.511-3.524v-11.062c0-3.02-0.66-3.527-3.511-3.527h-28.52v-47.461"/><path d="m633.56 222.78c-0.68-0.164-1.5-0.672-2.188-0.672-1.504 0-4.023 5.86-4.863 10.059-3.359-3.352-9.219-10.059-21.797-10.059-15.43 0-25.152 10.059-25.152 25.821 0 28.34 30.519 28.34 43.769 28.34v5.203c0 7.55-1.351 12.414-11.918 12.414-9.371 0-18.613-5.039-20.781-5.039-0.84 0-1.5 1.015-1.68 1.679l-3.359 10.235c-0.332 0.664-0.512 1.336-0.512 2.011 0 3.848 16.602 7.879 29.531 7.879 20.961 0 28.829-9.558 28.829-27v-32.375c0-16.257 4.379-18.437 4.379-21.785 0-0.676-0.688-1.172-1.528-1.523zm-10.231 39.739c-4.199 0-23.66 1.347-23.66-13.411 0-6.543 4.711-11.406 11.082-11.406 6.207 0 10.559 4.367 12.578 6.379v18.438"/><path d="m721.56 232.68c0.171-0.508 0.511-1.172 0.511-1.68 0-4.023-13.601-8.887-23.66-8.887-23.301 0-37.223 14.258-37.223 42.598s14.262 45.945 39.082 45.945c9.04 0 23.809-5.027 23.809-10.23 0-0.5-0.328-1.008-0.508-1.504l-6.211-10.91c-0.332-0.332-0.66-0.832-1.172-0.832-1.679 0-7.207 6.711-15.918 6.711-11.41 0-16.441-8.731-16.441-28.008 0-18.449 4.352-26.992 17.281-26.992 8.539 0 11.891 5.683 14.922 5.683 0.508 0 0.84-0.324 1.168-0.832l4.36-11.062"/><path d="m804.06 227.3c0-1.844-0.352-2.344-2.36-2.344h-16.609c-2.012 0-2.34 0.5-2.34 2.344v51.66c0 6.367-0.84 14.082-9.391 14.082-7.031 0-12.07-5.039-14.261-7.051v-58.691c0-1.844-0.329-2.344-2.348-2.344h-16.602c-2.007 0-2.339 0.5-2.339 2.344v112.7c0 2.508 1.171 2.508 3.179 3.016l14.09 2.843c0.5 0 2.012 0.508 2.34 0.508 1.351 0 1.68-0.664 1.68-3.515v-41.758c4.531 3.691 11.25 9.558 23.14 9.558 17.781 0 21.821-11.902 21.821-26.504v-56.843"/><path d="m894.08 227.3c0-1.844-0.332-2.344-2.34-2.344h-16.609c-2.012 0-2.36 0.5-2.36 2.344v51.66c0 6.367-0.839 14.082-9.371 14.082-7.05 0-12.089-5.039-14.261-7.051v-58.691c0-1.844-0.328-2.344-2.348-2.344h-16.602c-2.027 0-2.359 0.5-2.359 2.344v112.7c0 2.508 1.172 2.508 3.18 3.016l14.109 2.843c0.481 0 2.012 0.508 2.34 0.508 1.352 0 1.68-0.664 1.68-3.515v-41.758c4.531 3.691 11.23 9.558 23.14 9.558 17.782 0 21.801-11.902 21.801-26.504v-56.843"/><path d="m946.21 222.11c-22.641 0-36.41 17.274-36.41 44.278 0 26.992 13.769 44.258 36.41 44.258 22.461 0 36.391-17.266 36.391-44.258 0-27.004-13.75-44.278-36.391-44.278m13.75 44.278c0 15.586-2.188 27.5-13.75 27.5-11.582 0-13.75-11.914-13.75-27.5 0-15.606 2.012-27.5 13.75-27.5s13.75 11.738 13.75 27.5"/><path d="m1057 232.68c0.16-0.508 0.49-1.172 0.49-1.68 0-4.023-13.58-8.887-23.63-8.887-23.32 0-37.23 14.258-37.23 42.598s14.24 45.945 39.06 45.945c9.06 0 23.81-5.027 23.81-10.23 0-0.5-0.33-1.008-0.49-1.504l-6.21-10.91c-0.33-0.332-0.66-0.832-1.17-0.832-1.68 0-7.21 6.711-15.94 6.711-11.4 0-16.42-8.731-16.42-28.008 0-18.449 4.35-26.992 17.26-26.992 8.56 0 11.92 5.683 14.92 5.683 0.51 0 0.84-0.324 1.18-0.832l4.37-11.062"/><path d="m1139.5 227.3c0-1.844-0.33-2.344-2.34-2.344h-16.61c-2.01 0-2.36 0.5-2.36 2.344v51.66c0 6.367-0.84 14.082-9.37 14.082-7.05 0-12.09-5.039-14.26-7.051v-58.691c0-1.844-0.33-2.344-2.34-2.344h-16.61c-2.03 0-2.36 0.5-2.36 2.344v112.7c0 2.508 1.17 2.508 3.18 3.016l14.11 2.843c0.48 0 2.01 0.508 2.34 0.508 1.35 0 1.68-0.664 1.68-3.515v-41.758c4.53 3.691 11.23 9.558 23.14 9.558 17.78 0 21.8-11.902 21.8-26.504v-56.843"/><path d="m1207.6 291.04c-0.33-0.84-1.17-1.515-1.33-1.515-0.51 0-8.73 4.367-19.45 4.367-6.39 0-11.08-2.356-11.08-8.047 0-9.063 15.1-8.391 27-16.27 6.54-4.367 11.25-10.742 11.25-20.461 0-15.429-10.92-27-28.7-27-12.4 0-31.52 6.368-31.52 10.899 0 0.508 0.68 1.512 0.84 2.187l3.69 9.551c0.33 0.84 0.67 1.512 1.35 1.512 0.66 0 13.57-7.371 23.98-7.371 5.53 0 10.22 2.343 10.22 8.379 0 9.726-16.43 9.726-27.5 17.109-5.02 3.348-9.88 9.219-9.88 18.945 0 15.254 11.56 27.332 29.66 27.332 10.24 0 26.18-4.375 26.18-8.211 0-0.507-0.51-1.515-0.84-2.187l-3.87-9.219"/><path d="m1286.9 232.68c0.17-0.508 0.51-1.172 0.51-1.68 0-4.023-13.59-8.887-23.66-8.887-23.3 0-37.23 14.258-37.23 42.598s14.27 45.945 39.09 45.945c9.05 0 23.81-5.027 23.81-10.23 0-0.5-0.33-1.008-0.51-1.504l-6.19-10.91c-0.34-0.332-0.68-0.832-1.18-0.832-1.68 0-7.22 6.711-15.93 6.711-11.41 0-16.43-8.731-16.43-28.008 0-18.449 4.36-26.992 17.27-26.992 8.55 0 11.89 5.683 14.92 5.683 0.51 0 0.84-0.324 1.17-0.832l4.36-11.062"/><path d="m1369.4 227.3c0-1.844-0.36-2.344-2.36-2.344h-16.61c-2.02 0-2.34 0.5-2.34 2.344v51.66c0 6.367-0.84 14.082-9.39 14.082-7.03 0-12.07-5.039-14.27-7.051v-58.691c0-1.844-0.32-2.344-2.34-2.344h-16.61c-2 0-2.33 0.5-2.33 2.344v112.7c0 2.508 1.17 2.508 3.17 3.016l14.1 2.843c0.49 0 2.01 0.508 2.35 0.508 1.34 0 1.66-0.664 1.66-3.515v-41.758c4.54 3.691 11.25 9.558 23.14 9.558 17.79 0 21.83-11.902 21.83-26.504v-56.843"/><path d="m1444.6 222.62c-1-0.344-1.83-0.508-2.52-0.508-2.17 0-3.52 3.172-5.35 9.895-4.53-4.027-12.42-9.895-25.66-9.895-9.22 0-21.8 4.2-21.8 24.481v57.687c0 2.344 1.17 2.52 3.18 3.028l14.08 2.851c0.51 0 2.19 0.496 2.7 0.496 0.99 0 1.33-0.672 1.33-3.523v-53.32c0-6.379 0.84-14.094 9.39-14.094 7.05 0 12.58 3.691 14.77 5.207v59.355c0 2.344 1.17 2.52 3.18 3.028l14.08 2.851c0.51 0 2.19 0.496 2.85 0.496 0.85 0 1.18-0.672 1.18-3.523v-52.324c0-23.633 3.18-22.305 3.18-26.153 0-0.832-0.66-1.515-1.84-1.847l-12.75-4.188"/><path d="m1516.2 228.14c0.18-0.84 0.33-0.84 0.33-1.34 0-2.352-8.88-4.696-16.93-4.696-20.63 0-20.63 16.934-20.63 32.364v85.527c0 2.52 1.18 2.52 3.19 3.016l14.08 2.843c0.51 0 2.01 0.508 2.36 0.508 1.33 0 1.66-0.664 1.66-3.515v-91.399c0-5.359 0-10.058 4.71-10.058 3.36 0 5.53 1.515 6.54 1.515 0.67 0 1.18-0.344 1.33-1.015l3.36-13.75"/><path d="m1591.6 233.85c0.33-0.508 0.51-1.172 0.51-1.856 0-4.347-16.78-9.883-30.02-9.883-22.13 0-37.56 12.579-37.56 43.438 0 26.66 14.24 45.105 36.72 45.105 28.51 0 33.53-25.496 33.53-45.781 0-3.191-0.66-4.187-3.84-4.187h-45.12c0-9.395 2.68-20.969 18.46-20.969 12.07 0 18.94 5.539 21.3 5.539 0.83 0 1.49-0.676 1.82-1.348zm-19.45 42.422c0 6.875-0.51 18.789-12.07 18.789-13.09 0-13.75-14.082-14.26-18.789h26.33"/><path d="m1661.4 228.48c0-3.008-0.67-3.528-3.52-3.528h-15.6c-2.84 0-3.52 0.52-3.52 3.528v107.83c0 3.015 0.68 3.515 3.52 3.515h15.6c2.85 0 3.52-0.5 3.52-3.515v-46.954h0.33l36.9 51.153c0.51 0.84 1.84 2.168 2.86 2.168 0.83 0 1.67-0.664 3-1.328l11.41-5.703c1.01-0.508 2.19-1.524 2.19-2.012 0-1.68-0.67-2.024-1.18-2.695l-35.74-47.11 39.44-48.976c0.5-0.672 1.17-1.004 1.17-2.684 0-0.496-1.17-1.504-2.19-2.012l-13.42-6.699c-1.33-0.676-2.17-1.348-3.01-1.348-1.01 0-2.34 1.348-2.85 2.188l-38.58 51.308h-0.33v-47.128"/><path d="m1760 227.3c0-1.844-0.33-2.344-2.34-2.344h-16.6c-2.02 0-2.37 0.5-2.37 2.344v64.902h-12.91c-2.01 0-2.34 0.508-2.34 2.344v10.898c0 1.856 0.33 2.352 2.34 2.352h31.88c2.01 0 2.34-0.496 2.34-2.352zm-10.74 91.394c-7.72 0-13.91 6.203-13.91 13.918s6.19 13.75 13.91 13.75c7.56 0 13.75-6.035 13.75-13.75s-6.19-13.918-13.75-13.918"/><path d="m1844.4 233.85c0.34-0.508 0.51-1.172 0.51-1.856 0-4.347-16.78-9.883-30.02-9.883-22.13 0-37.56 12.579-37.56 43.438 0 26.66 14.26 45.105 36.72 45.105 28.52 0 33.54-25.496 33.54-45.781 0-3.191-0.67-4.187-3.85-4.187h-45.12c0-9.395 2.7-20.969 18.44-20.969 12.09 0 18.96 5.539 21.31 5.539 0.84 0 1.5-0.676 1.85-1.348zm-19.45 42.422c0 6.875-0.51 18.789-12.07 18.789-13.09 0-13.75-14.082-14.26-18.789h26.33"/><path d="m1902.4 228.14c0.18-0.84 0.33-0.84 0.33-1.34 0-2.352-8.88-4.696-16.93-4.696-20.63 0-20.63 16.934-20.63 32.364v85.527c0 2.52 1.18 2.52 3.19 3.016l14.08 2.843c0.51 0 2.01 0.508 2.34 0.508 1.35 0 1.68-0.664 1.68-3.515v-91.399c0-5.359 0-10.058 4.71-10.058 3.34 0 5.53 1.515 6.54 1.515 0.67 0 1.18-0.344 1.33-1.015l3.36-13.75"/><path d="m560.48 154.71c0 0.215 0.094 0.422 0.094 0.625 0 0.731-0.304 0.938-1.039 0.938h-5.609c-0.828 0-1.348-0.313-1.559-1.25l-10.508-50.442c-1.972-9.6678-7.589-14.043-16.742-14.043-6.859 0-10.82 2.3945-10.82 8.2226 0 1.9722 0.422 3.9572 0.84 5.8202l10.601 50.129c0 0.215 0.114 0.422 0.114 0.625 0 0.731-0.317 0.938-1.043 0.938h-5.621c-0.829 0-1.352-0.313-1.559-1.25l-10.699-50.442c-0.524-2.078-0.735-4.258-0.735-6.4452 0-10.391 6.231-14.539 17.785-14.539 17.567 0 23.399 9.6601 25.786 20.984zm2.5-68.32c-0.105-0.1953-0.105-0.5195-0.105-0.7109 0-0.4219 0.313-0.6367 0.832-0.6367h5.41c0.828 0 1.039 0.3125 1.238 1.0468l4.782 22.664c1.449 6.875 7.593 20.703 18.832 20.703 3.121 0 4.679-1.562 4.679-4.473 0-1.347-0.308-2.812-0.621-4.16l-7.289-34.433c-0.097-0.1953-0.097-0.5195-0.097-0.7109 0-0.4219 0.304-0.6367 0.828-0.6367h5.41c0.84 0 1.043 0.3125 1.25 1.0468l7.379 34.734c0.508 2.395 1.031 4.774 1.031 7.274 0 5.508-4.051 8.312-9.449 8.312-9.262 0-14.981-5.605-18.832-11.015h-0.211c0 0.937 0.312 2.597 0.312 4.675 0 3.227-1.14 6.34-1.972 6.34-0.418 0-0.828-0.312-1.461-0.519l-3.731-1.563c-0.418-0.097-0.937-0.418-0.937-0.828 0.422-2.078 0.832-4.152 0.832-6.223 0-1.464-0.313-3.75-0.735-5.933zm73.309 45.144c0.211 1.137 0.52 1.965 0.52 2.59 0 0.731-0.204 0.828-1.664 0.828h-13.829c-0.718 0-1.039-0.418-1.238-1.14l-0.73-3.321c-0.11-0.422-0.11-0.625-0.11-0.832 0-0.418 0.11-0.73 0.84-0.73h8.207l-8.937-42.121c-0.11-0.3008-0.211-0.8281-0.211-1.25 0-0.3008 0.418-0.5156 1.039-0.5156h5.512c1.042 0 1.148 1.1523 1.347 2.0781zm6.449 22.246c0 3.125-2.711 5.821-5.82 5.821-3.223 0-5.82-2.696-5.82-5.821 0-3.222 2.597-5.816 5.82-5.816 3.109 0 5.82 2.594 5.82 5.816m44.821-21.004c0.211 0.301 0.308 0.614 0.308 0.926 0 0.207-0.097 0.422-0.621 0.625l-5.308 1.242c-0.313 0.118-0.52 0.118-0.723 0.118-0.317 0-0.418-0.215-0.629-0.528l-16.414-31.183c-1.567-2.918-4.067-7.1878-4.371-8.3207h-0.211c0 1.8672-0.313 5.4027-0.41 6.8557l-3.121 32.441c0 0.422-0.114 0.735-0.418 0.735-0.313 0-0.735-0.215-0.934-0.215l-5.828-1.25c-0.52-0.098-0.832-0.313-0.832-0.832 0-0.313 0-0.516 0.113-1.035l5.82-46.891c0-0.832 0.305-1.1562 1.25-1.1562h3.836c0.735 0 0.832 0.2148 1.25 0.8398zm36.41-37.539c-0.207 0.3008-0.524 0.6133-0.942 0.6133-1.449 0-5.609-5-14.867-5-6.773 0-9.683 4.0625-9.683 11.457 0 0.84 0.101 1.668 0.101 2.605 9.16 0.098 32.031 0.098 32.031 18.184 0 7.707-4.461 13.312-13.711 13.312-15.511 0-26.312-16.113-26.312-33.789 0-11.554 5.082-19.023 16.84-19.023 10.094 0 19.246 6.1132 19.246 7.3632 0 0.2149-0.106 0.3125-0.211 0.5274zm-24.559 16.106c1.149 5.105 4.477 18.629 16.336 18.629 5.106 0 7.606-2.813 7.606-7.176 0-11.453-18.215-11.453-23.942-11.453m39.219-24.004c-0.309-1.4687-0.309-1.4687-0.309-1.6601 0-0.4219 0.309-0.6367 0.828-0.6367h5.407c0.832 0 1.043 0.3125 1.25 1.0468l4.781 22.664c0.934 4.48 1.973 8.738 4.98 13.215 1.563 2.281 6.032 7.176 9.883 7.176 2.387 0 2.598-0.633 3.328-0.633 0.309 0 0.52 0.211 0.731 0.73l2.078 4.785c0.211 0.411 0.312 0.711 0.312 1.036 0 0.722-2.289 1.347-3.949 1.347-5.832 0-11.965-5.187-14.465-10.5l-0.199 0.215c0.313 0.832 0.313 1.77 0.313 2.805 0 4.148-0.942 7.48-1.868 7.48-0.421 0-1.042-0.312-1.355-0.422l-4.148-1.757c-0.422-0.204-1.039-0.625-1.039-1.25 0-0.829 1.039-3.106 1.039-7.262 0-3.125-0.52-4.797-1.149-7.914zm66.129 44.082c0.109 0.215 0.207 0.523 0.207 0.828 0 1.777-5.719 4.16-11.836 4.16-9.274 0-17.27-5.508-17.27-15.273 0-12.805 16.231-12.07 16.231-22.16 0-5.2032-4.274-8.4375-9.063-8.4375-7.789 0-11.851 3.75-13.089 3.75-0.52 0-0.84-0.3008-1.149-1.0313l-1.66-3.5469c-0.113-0.3047-0.418-0.7226-0.418-1.2422 0-1.4531 6.867-4.871 14.969-4.871 10.621 0 18.297 6.3281 18.297 16.836 0 4.367-1.657 7.168-4.567 9.773-4.472 4.172-11.648 6.25-11.648 11.856 0 4.484 3.426 7.394 8.738 7.394 5.707 0 8.207-2.297 9.246-2.297 0.731 0 1.043 0.422 1.352 0.938zm26.629 0.113c0.211 1.137 0.523 1.965 0.523 2.59 0 0.731-0.199 0.828-1.66 0.828h-13.832c-0.719 0-1.043-0.418-1.242-1.14l-0.727-3.321c-0.113-0.422-0.113-0.625-0.113-0.832 0-0.418 0.113-0.73 0.84-0.73h8.215l-8.942-42.121c-0.113-0.3008-0.211-0.8281-0.211-1.25 0-0.3008 0.418-0.5156 1.039-0.5156h5.508c1.039 0 1.153 1.1523 1.356 2.0781zm6.441 22.246c0 3.125-2.699 5.821-5.812 5.821-3.215 0-5.821-2.696-5.821-5.821 0-3.222 2.606-5.816 5.821-5.816 3.113 0 5.812 2.594 5.812 5.816m29.438-61.464c-0.11 0.5195-0.317 0.7227-0.727 0.7227-1.461 0-4.68-3.0157-9.668-3.0157-3.441 0-4.894 1.043-4.894 4.8907 0 1.25 0.211 3.6445 0.523 5.1948l6.129 28.821h12.797c0.832 0 1.039 0.105 1.351 0.832l1.661 3.433c0.21 0.508 0.421 0.832 0.421 1.133 0 0.313-0.312 0.625-0.832 0.625h-14.148l3.328 15.391c0.098 0.422 0.211 0.832 0.211 1.152 0 0.305-0.113 0.617-0.629 0.617-0.199 0-0.523-0.097-0.719-0.097l-5.523-1.563c-0.719-0.207-0.828-0.422-1.039-1.152l-3.008-14.348h-7.582c-0.938 0-1.148-0.312-1.348-1.25l-0.523-2.488c-0.317-1.453-0.317-1.453-0.317-1.66 0-0.41 0.317-0.625 0.84-0.625h7.578l-6.128-28.821c-0.313-1.6597-0.934-4.4605-0.934-6.1206 0-6.8672 3.73-10.391 9.242-10.391 6.762 0 14.66 2.5859 14.66 4.6679 0 0.3125-0.199 0.8281-0.199 1.1406zm52.621 39.73c0 0.203 0.211 0.516 0.211 0.828 0 0.313-0.11 0.422-0.52 0.613l-4.89 1.985c-0.309 0.097-0.516 0.215-0.833 0.215-0.304 0-0.515-0.215-0.628-0.633l-19.961-45.961h-0.207l-5.918 45.644c-0.114 0.637-0.114 0.95-0.524 0.95-0.422 0-0.726-0.215-1.043-0.313l-5.617-1.887c-0.519-0.191-0.832-0.3-0.832-0.828 0-0.41 0.105-0.832 0.211-1.25l6.762-45.32c0.097-0.832 0.41-1.0468 1.242-1.0468h3.75l-3.539-6.5547c-1.871-3.4336-5.305-8.3281-10.813-8.3281-4.371 0-7.07 2.9101-8.222 2.9101-0.407 0-0.618-0.207-0.828-0.5156l-2.391-3.9492c-0.207-0.3086-0.516-0.625-0.516-1.043 0-1.3477 5.715-4.3555 11.227-4.3555 15.082 0 22.039 20.066 25.578 27.969zm57.73 4.363c-17.898 0-26.621-18.398-26.621-35.461 0-12.371 6.02-17.351 15.692-17.351 17.691 0 26.828 18.711 26.828 35.246 0 11.863-6.016 17.566-15.899 17.566m8.012-17.668c0-11.336-5.313-28.406-17.691-28.406-6.45 0-9.051 3.9532-9.051 10.82 0 12.071 4.992 28.504 17.582 28.504 5.308 0 9.16-3.113 9.16-10.918m48.551 10.188c0.72 0 0.93 0.312 1.35 1.25l0.93 2.492c0.52 1.453 0.52 1.453 0.52 1.656 0 0.41-0.31 0.625-0.83 0.625h-14.66l1.87 9.055c0.84 3.848 1.36 10.301 8.63 10.301 4.58 0 8.32-2.5 9.26-2.5 0.31 0 0.62 0.312 0.73 0.531l1.87 4.461c0 0.105 0.1 0.215 0.1 0.312 0 1.239-5.93 3.223-11.12 3.223-13.73 0-15.5-9.562-16.75-15.391l-2.07-9.992h-7.28c-0.94 0-1.15-0.312-1.35-1.25l-0.52-2.488c-0.32-1.453-0.32-1.453-0.32-1.66 0-0.41 0.32-0.625 0.84-0.625h7.27l-8.94-46.387c-0.73-3.8477-2.39-12.07-10.921-12.07-3.008 0-6.031 0.9375-6.441 0.9375-0.309 0-0.629-0.3125-0.727-0.625l-1.461-4.25c-0.101-0.2149-0.101-0.5235-0.101-0.7305 0-1.25 4.472-1.9727 7.898-1.9727 15.603 0 18.203 12.148 19.343 18.289l8.84 46.809zm62.71-15.508h-18.2l11.75 23.105c1.25 2.383 3.33 7.586 4.16 9.872h0.21c0-2.594 0-6.133 0.31-9.872zm-39.1-26.082c-0.2-0.4218-0.41-0.7343-0.41-1.25 0-0.832 0.31-1.0468 0.93-1.0468h5.41c0.62 0 0.73 0.2148 1.25 1.0468l10.29 20.387h22.25l1.66-20.184c0-0.9375 0.32-1.25 1.15-1.25h6.34c0.62 0 0.94 0.1054 0.94 0.5156 0 0.2148 0 0.5312-0.11 1.0469l-6.44 68.32c-0.21 1.25-0.32 1.348-1.46 1.348h-5.2c-0.93 0-1.25-0.207-1.66-0.93zm74.15 22.977c2.18 10.402 7.69 19.14 15.6 19.14 4.37 0 5.72-3.547 5.72-8.84 0-11.035-3.74-30.078-15.19-30.078-4.58 0-7.07 1.5625-9.66 3.125zm-4.99 23.398c-0.52-0.215-1.56-0.52-1.56-1.25 0-0.734 0.42-1.043 0.52-1.453 1.04-2.289 1.04-4.164 1.04-5.813 0-2.199-0.21-4.582-0.62-6.144l-11.75-55.02c0-0.5235 0-0.8282 0.72-0.8282 0.42 0 0.73 0.2032 0.94 0.2032l5.2 1.25c0.73 0.2148 0.94 1.0468 1.04 1.6601l4.47 20.695c2.29-1.3476 5.4-3.4179 11.43-3.4179 15.4 0 22.77 19.636 22.77 37.429 0 10.293-4.25 15.383-11.74 15.383-7.18 0-11.65-4.773-14.57-8-0.31 1.653-0.93 3.84-1.45 5.196-0.62 1.554-1.14 2.179-1.56 2.179-0.41 0-0.72-0.215-1.04-0.312zm57.09-23.398c2.18 10.402 7.69 19.14 15.6 19.14 4.37 0 5.73-3.547 5.73-8.84 0-11.035-3.75-30.078-15.2-30.078-4.57 0-7.07 1.5625-9.66 3.125zm-4.99 23.398c-0.52-0.215-1.56-0.52-1.56-1.25 0-0.734 0.42-1.043 0.52-1.453 1.04-2.289 1.04-4.164 1.04-5.813 0-2.199-0.2-4.582-0.62-6.144l-11.75-55.02c0-0.5235 0-0.8282 0.73-0.8282 0.41 0 0.72 0.2032 0.93 0.2032l5.2 1.25c0.73 0.2148 0.94 1.0468 1.04 1.6601l4.47 20.695c2.29-1.3476 5.4-3.4179 11.43-3.4179 15.41 0 22.78 19.636 22.78 37.429 0 10.293-4.26 15.383-11.74 15.383-7.19 0-11.66-4.773-14.57-8-0.32 1.653-0.94 3.84-1.46 5.196-0.62 1.554-1.14 2.179-1.56 2.179-0.41 0-0.72-0.215-1.03-0.312zm63.64-42.648c-0.11 0.5195-0.31 0.7227-0.73 0.7227-0.83 0-2.6-1.7657-5.3-1.7657-1.88 0-3.02 0.8282-3.02 3.4258 0 2.4024 0.83 7.8047 1.46 10.52l11.75 55.527c0 0.516 0 0.84-0.73 0.84-0.42 0-0.73-0.215-0.94-0.215l-5.2-1.25c-0.72-0.207-0.93-1.035-1.04-1.66l-11.32-53.242c-0.42-2.082-1.87-8.4377-1.87-12.481 0-5.1953 3.43-7.8906 8.41-7.8906 4.16 0 9.26 1.8671 9.26 3.4179 0 0.3125-0.21 0.8281-0.21 1.1406zm28.4 40.468c0.2 1.137 0.52 1.965 0.52 2.59 0 0.731-0.21 0.828-1.67 0.828h-13.82c-0.73 0-1.04-0.418-1.25-1.14l-0.73-3.321c-0.1-0.422-0.1-0.625-0.1-0.832 0-0.418 0.1-0.73 0.83-0.73h8.21l-8.94-42.121c-0.1-0.3008-0.21-0.8281-0.21-1.25 0-0.3008 0.42-0.5156 1.04-0.5156h5.51c1.04 0 1.15 1.1523 1.36 2.0781zm6.44 22.246c0 3.125-2.7 5.821-5.82 5.821-3.22 0-5.82-2.696-5.82-5.821 0-3.222 2.6-5.816 5.82-5.816 3.12 0 5.82 2.594 5.82 5.816m34.95-58.543c-0.21 0.3008-0.52 0.6133-0.94 0.6133-1.46 0-5.62-5-14.88-5-6.76 0-9.68 4.0625-9.68 11.457 0 0.84 0.11 1.668 0.11 2.605 9.15 0.098 32.03 0.098 32.03 18.184 0 7.707-4.46 13.312-13.72 13.312-15.5 0-26.31-16.113-26.31-33.789 0-11.554 5.09-19.023 16.84-19.023 10.1 0 19.24 6.1132 19.24 7.3632 0 0.2149-0.1 0.3125-0.2 0.5274zm-24.56 16.106c1.14 5.105 4.47 18.629 16.34 18.629 5.09 0 7.59-2.813 7.59-7.176 0-11.453-18.21-11.453-23.93-11.453m69.89-1.664c-2.18-10.399-8.21-19.141-16.85-19.141-4.37 0-5.72 3.5468-5.72 8.8476 0 11.027 3.95 30.07 16.96 30.07 4.58 0 6.55-1.562 9.14-3.125zm4.99 23.301c-2.29 1.347-5.4 3.429-10.91 3.429-16.86 0-24.54-19.648-24.54-37.433 0-10.301 4.25-15.379 11.74-15.379 8.22 0 13.21 6.2304 16.23 10.586h0.21c0-0.918 0-1.75 0.1-3.5156 0-3.2344 1.15-6.3594 1.98-6.3594 0.41 0 0.83 0.3242 1.45 0.5312l3.74 1.5508c0.41 0.1172 1.04 0.418 1.04 0.8399 0 0.7226-1.04 3.3203-1.04 6.2382 0 2.4922 0.21 5.3047 0.62 7.4802l12.48 58.547c0.11 0.516 0 0.84-0.73 0.84-0.41 0-0.72-0.215-0.93-0.215l-5.2-1.25c-0.73-0.207-0.94-1.035-1.04-1.66zm88.81 18.41c0.3 0.527 0.42 0.73 0.42 1.152 0 0.508-0.53 0.926-1.36 1.453-2.59 1.555-7.17 3.742-14.85 3.742-12.6 0-22.26-7.589-22.26-19.863 0-17.062 21.84-17.988 21.84-32.969 0-7.9098-4.68-14.367-14.36-14.367-5.4 0-9.25 2.082-10.29 2.7187-2.18 1.3438-3.33 2.1758-3.85 2.1758s-0.72-0.3125-1.24-1.1445l-2.08-3.6329c-0.32-0.5234-0.52-0.9453-0.52-1.3554 0-1.8672 8.32-5.7031 17.15-5.7031 14.24 0 23.71 8.9257 23.71 22.136 0 7.59-3.23 11.75-6.97 15.5-6.75 6.336-14.87 9.668-14.87 16.844 0 7.707 5.2 12.696 12.9 12.696 3.33 0 5.61-0.309 8.83-2.079 1.77-0.937 3.23-2.296 4.16-2.296 0.31 0 0.62 0.316 0.73 0.421zm34.53-56.692c-0.21 0.3242-0.52 0.4219-0.83 0.4219-1.36 0-5-4.2695-11.86-4.2695-6.56 0-9.36 4.0625-9.36 10.207 0 11.855 5.51 28.398 18.1 28.398 3.01 0 4.78-0.625 6.96-1.465 1.04-0.41 2.19-1.347 3.12-1.347 0.42 0 0.73 0.418 1.04 0.937l1.88 3.008c0.31 0.422 0.62 1.047 0.62 1.66 0 1.465-6.14 4.16-12.79 4.16-17.47 0-26.82-18.183-26.82-35.461 0-10.816 4.57-17.351 14.65-17.351 8.84 0 17.16 5.1835 17.16 6.6406 0 0.3008-0.31 0.6133-0.31 0.8281zm31.83 36.836c0.2 1.137 0.52 1.965 0.52 2.59 0 0.731-0.21 0.828-1.66 0.828h-13.83c-0.73 0-1.05-0.418-1.25-1.14l-0.73-3.321c-0.1-0.422-0.1-0.625-0.1-0.832 0-0.418 0.1-0.73 0.83-0.73h8.22l-8.95-42.121c-0.1-0.3008-0.2-0.8281-0.2-1.25 0-0.3008 0.41-0.5156 1.04-0.5156h5.5c1.05 0 1.15 1.1523 1.36 2.0781zm6.43 22.246c0 3.125-2.69 5.821-5.82 5.821-3.21 0-5.81-2.696-5.81-5.821 0-3.222 2.6-5.816 5.81-5.816 3.13 0 5.82 2.594 5.82 5.816m34.96-58.543c-0.21 0.3008-0.52 0.6133-0.94 0.6133-1.45 0-5.62-5-14.88-5-6.76 0-9.67 4.0625-9.67 11.457 0 0.84 0.09 1.668 0.09 2.605 9.17 0.098 32.04 0.098 32.04 18.184 0 7.707-4.47 13.312-13.72 13.312-15.5 0-26.31-16.113-26.31-33.789 0-11.554 5.08-19.023 16.84-19.023 10.1 0 19.25 6.1132 19.25 7.3632 0 0.2149-0.12 0.3125-0.21 0.5274zm-24.57 16.106c1.16 5.105 4.49 18.629 16.35 18.629 5.1 0 7.59-2.813 7.59-7.176 0-11.453-18.2-11.453-23.94-11.453m39.34-24.953c-0.12-0.1953-0.12-0.5195-0.12-0.7109 0-0.4219 0.32-0.6367 0.83-0.6367h5.41c0.83 0 1.05 0.3125 1.25 1.0468l4.79 22.664c1.44 6.875 7.58 20.703 18.82 20.703 3.13 0 4.68-1.562 4.68-4.473 0-1.347-0.31-2.812-0.62-4.16l-7.29-34.433c-0.1-0.1953-0.1-0.5195-0.1-0.7109 0-0.4219 0.32-0.6367 0.84-0.6367h5.41c0.83 0 1.04 0.3125 1.25 1.0468l7.37 34.734c0.52 2.395 1.04 4.774 1.04 7.274 0 5.508-4.05 8.312-9.45 8.312-9.28 0-14.99-5.605-18.85-11.015h-0.2c0 0.937 0.31 2.597 0.31 4.675 0 3.227-1.14 6.34-1.97 6.34-0.41 0-0.83-0.312-1.46-0.519l-3.74-1.563c-0.41-0.097-0.93-0.418-0.93-0.828 0.42-2.078 0.84-4.152 0.84-6.223 0-1.464-0.32-3.75-0.74-5.933zm82.14 8.3086c-0.22 0.3242-0.52 0.4219-0.84 0.4219-1.35 0-4.99-4.2695-11.86-4.2695-6.54 0-9.35 4.0625-9.35 10.207 0 11.855 5.51 28.398 18.08 28.398 3.03 0 4.8-0.625 6.98-1.465 1.04-0.41 2.18-1.347 3.12-1.347 0.42 0 0.73 0.418 1.04 0.937l1.87 3.008c0.32 0.422 0.63 1.047 0.63 1.66 0 1.465-6.15 4.16-12.8 4.16-17.48 0-26.81-18.183-26.81-35.461 0-10.816 4.56-17.351 14.65-17.351 8.83 0 17.15 5.1835 17.15 6.6406 0 0.3008-0.3 0.6133-0.3 0.8281zm46.08 0.5391c-0.21 0.3008-0.52 0.6133-0.93 0.6133-1.45 0-5.63-5-14.89-5-6.76 0-9.67 4.0625-9.67 11.457 0 0.84 0.09 1.668 0.09 2.605 9.17 0.098 32.04 0.098 32.04 18.184 0 7.707-4.45 13.312-13.73 13.312-15.49 0-26.3-16.113-26.3-33.789 0-11.554 5.09-19.023 16.85-19.023 10.1 0 19.24 6.1132 19.24 7.3632 0 0.2149-0.1 0.3125-0.22 0.5274zm-24.57 16.106c1.16 5.105 4.49 18.629 16.35 18.629 5.1 0 7.6-2.813 7.6-7.176 0-11.453-18.21-11.453-23.95-11.453m72.5 20.078c0.1 0.215 0.22 0.523 0.22 0.828 0 1.777-5.72 4.16-11.86 4.16-9.27 0-17.26-5.508-17.26-15.273 0-12.805 16.23-12.07 16.23-22.16 0-5.2032-4.28-8.4375-9.07-8.4375-7.77 0-11.83 3.75-13.08 3.75-0.53 0-0.84-0.3008-1.15-1.0313l-1.66-3.5469c-0.1-0.3047-0.41-0.7226-0.41-1.2422 0-1.4531 6.85-4.871 14.96-4.871 10.62 0 18.3 6.3281 18.3 16.836 0 4.367-1.66 7.168-4.57 9.773-4.47 4.172-11.66 6.25-11.66 11.856 0 4.484 3.44 7.394 8.75 7.394 5.72 0 8.2-2.297 9.24-2.297 0.74 0 1.05 0.422 1.34 0.938l1.68 3.324"/></g></g></svg>
