<?xml version="1.0" encoding="UTF-8"?>
<svg width="94.192mm" height="70.644mm" version="1.1" viewBox="0 0 94.192 70.644" xmlns="http://www.w3.org/2000/svg" xmlns:cc="http://creativecommons.org/ns#" xmlns:dc="http://purl.org/dc/elements/1.1/" xmlns:rdf="http://www.w3.org/1999/02/22-rdf-syntax-ns#">
 <metadata>
  <rdf:RDF>
   <cc:Work rdf:about="">
    <dc:format>image/svg+xml</dc:format>
    <dc:type rdf:resource="http://purl.org/dc/dcmitype/StillImage"/>
    <dc:title/>
   </cc:Work>
  </rdf:RDF>
 </metadata>
 <g transform="translate(-86.708 -50.101)">
  <g transform="matrix(1.0927 0 0 1.0927 116.32 67.94)">
   <rect x="-.052311" y="-.052486" width="32.105" height="32.105" ry="3.6189" fill="#f7fbf7" stroke-opacity="0" style="paint-order:markers stroke fill"/>
   <path d="m16 8.333c-4.411 0-8 3.553-8 7.919 0 3.257 2.063 6.224 5.132 7.381 0.264 0.104 0.57-0.042 0.655-0.315l1.5-4.741c0.071-0.225-0.027-0.468-0.235-0.581-0.649-0.354-1.052-1.023-1.052-1.744 0-1.092 0.897-1.98 2-1.98s2 0.888 2 1.98c0 0.721-0.403 1.39-1.052 1.745-0.208 0.113-0.307 0.356-0.235 0.581l1.5 4.741c0.086 0.274 0.389 0.416 0.655 0.315 3.07-1.158 5.132-4.125 5.132-7.382 0-4.366-3.589-7.919-8-7.919z" fill="#4caf50"/>
  </g>
 </g>
</svg>
