<?xml version="1.0" encoding="UTF-8"?>
<svg width="94.192mm" height="70.644mm" version="1.1" viewBox="0 0 94.192 70.644" xmlns="http://www.w3.org/2000/svg">
 <g transform="translate(-120.73 -37.25)">
  <g transform="matrix(.46666 0 0 .46666 26.666 -13.491)">
   <path d="m356.08 222h-110.5c-1.481 0-2.6928-1.2118-2.6928-2.6931v-74.128c0-1.4813 1.2118-2.6931 2.6928-2.6931h110.5c1.4813 0 2.6928 1.2118 2.6928 2.6931v74.128c0 1.4812-1.2114 2.6931-2.6928 2.6931" fill="#78d5e4"/>
   <path d="m352.16 219.31h-102.65c-1.481 0-2.6928-1.2119-2.6928-2.6927v-68.743c0-1.4813 1.2118-2.6928 2.6928-2.6928h102.65c1.4813 0 2.6931 1.2114 2.6931 2.6928v68.743c0 1.4809-1.2118 2.6927-2.6931 2.6927" fill="#2f518e"/>
   <g fill="#fdfefe">
    <path d="m263.68 154.25h14.197v-1.5748h-14.197z"/>
    <path d="m263.68 157.78h9.046v-1.5748h-9.046z"/>
    <path d="m277.79 157.78h36.377v-1.5748h-36.377z"/>
   </g>
   <path d="m317.69 157.78h19.05v-1.5748h-19.05z" fill="#fc6454"/>
   <path d="m267.2 161.3h22.971v-1.5748h-22.971z" fill="#58d05b"/>
   <path d="m297.23 161.3h34.226v-1.5748h-34.226z" fill="#fdfefe"/>
   <path d="m263.68 164.83h32.3v-1.5748h-32.3z" fill="#fc6454"/>
   <path d="m298.95 164.83h22.971v-1.5748h-22.971z" fill="#78d5e4"/>
   <g fill="#fdfefe">
    <path d="m267.2 168.36h22.971v-1.5748h-22.971z"/>
    <path d="m263.68 171.89h33.555v-1.5748h-33.555z"/>
    <path d="m263.68 175.42h22.971v-1.5748h-22.971z"/>
   </g>
   <path d="m270.73 178.94h38.318v-1.5748h-38.318z" fill="#fc6454"/>
   <g fill="#fdfefe">
    <path d="m313.06 178.94h12.388v-1.5748h-12.388z"/>
    <path d="m330.7 178.94h12.388v-1.5748h-12.388z"/>
    <path d="m274.26 182.47h15.631v-1.5748h-15.631z"/>
   </g>
   <path d="m274.26 186h20.853v-1.5748h-20.853z" fill="#fc6454"/>
   <path d="m302.48 186h22.971v-1.5748h-22.971z" fill="#fdfefe"/>
   <path d="m330.7 186h9.5659v-1.5748h-9.5659z" fill="#fc6454"/>
   <g fill="#fdfefe">
    <path d="m263.68 189.53h14.111v-1.5748h-14.111z"/>
    <path d="m263.68 193.05h22.971v-1.5748h-22.971z"/>
    <path d="m274.26 196.58h41.669v-1.5748h-41.669z"/>
   </g>
   <path d="m320.12 196.58h25.794v-1.5748h-25.794z" fill="#78d5e4"/>
   <path d="m274.26 200.11h14.152v-1.5748h-14.152z" fill="#fdfefe"/>
   <path d="m306.05 200.11h-14.152v-1.5748h14.152v1.5748" fill="#58d05b"/>
   <path d="m309.54 200.11h14.152v-1.5748h-14.152z" fill="#fdfefe"/>
   <path d="m263.68 203.64h22.971v-1.5748h-22.971z" fill="#fdfefe"/>
   <path d="m270.73 207.17h22.971v-1.5748h-22.971z" fill="#58d05b"/>
   <path d="m298.05 207.17h22.971v-1.5748h-22.971z" fill="#58d05b"/>
   <path d="m297.56 214.22h12.876v-1.5748h-12.876z" fill="#fdfefe"/>
   <path d="m270.73 210.69h34.073v-1.5748h-34.073z" fill="#fdfefe"/>
   <g fill="#7194bf">
    <path d="m253.22 154.25h1.5748v-1.5748h-1.5748z"/>
    <path d="m253.22 157.78h1.5748v-1.5748h-1.5748z"/>
    <path d="m253.22 161.3h1.5748v-1.5748h-1.5748z"/>
    <path d="m253.22 164.83h1.5748v-1.5748h-1.5748z"/>
    <path d="m253.22 168.36h1.5748v-1.5748h-1.5748z"/>
    <path d="m253.22 171.89h1.5748v-1.5748h-1.5748z"/>
    <path d="m253.22 175.42h1.5748v-1.5748h-1.5748z"/>
    <path d="m253.22 178.94h1.5748v-1.5748h-1.5748z"/>
    <path d="m253.22 182.47h1.5748v-1.5748h-1.5748z"/>
    <path d="m253.22 186h1.5748v-1.5748h-1.5748z"/>
    <path d="m253.22 189.53h1.5748v-1.5748h-1.5748z"/>
    <path d="m253.22 193.05h1.5748v-1.5748h-1.5748z"/>
    <path d="m253.22 196.58h1.5748v-1.5748h-1.5748z"/>
    <path d="m253.22 200.11h1.5748v-1.5748h-1.5748z"/>
    <path d="m253.22 203.64h1.5748v-1.5748h-1.5748z"/>
    <path d="m253.22 207.17h1.5748v-1.5748h-1.5748z"/>
    <path d="m253.22 210.69h1.5748v-1.5748h-1.5748z"/>
    <path d="m253.22 214.22h1.5748v-1.5748h-1.5748z"/>
   </g>
   <g fill="#fdfefe">
    <path d="m270.73 214.22h17.037v-1.5748h-17.037z"/>
    <path d="m337.52 214.19-6.701-2.8462v-1.1606l6.701-2.8466v1.2368l-5.3195 2.1897 5.3195 2.1904v1.2365"/>
    <path d="m342.24 205.63-2.9295 10.128h-1.0019l2.9295-10.128h1.0019"/>
    <path d="m349.72 211.34-6.701 2.8462v-1.2365l5.3195-2.1904-5.3195-2.1897v-1.2368l6.701 2.8466v1.1606"/>
   </g>
   <path d="m355.95 224.94h-111.83c-3.8961 0-7.0545-3.1584-7.0545-7.0546h125.94c0 3.8962-3.1581 7.0546-7.0541 7.0546" fill="#19bbd2"/>
   <path d="m283.23 217.89h-10.001l1.3018-3.6653h10.001l-1.3018 3.6653m1.8612-5.2401h-10.001l0.69356-1.953h10.001l-0.69356 1.953m1.2527-3.5278h-10.001l0.69356-1.953h10.001l-0.69356 1.953m1.2531-3.5278h-10.001l0.69356-1.953h8.3605v-1.5748h-7.801l0.69356-1.953h8.8713v-1.5748h-8.3122l0.69356-1.953h10.001l-3.1993 9.0085m3.7585-10.583h-10.001l0.69391-1.953h4.6016v-1.5748h-4.0425l1.9463-5.4808h10.001l-3.1993 9.0085m3.7588-10.583h-10.001l0.69356-1.953h4.0862v-1.5748h-3.5271l0.69356-1.953h10.001l-1.9466 5.4808m2.5058-7.0556h-10.001l1.9463-5.4808h7.668v-1.5748h-7.1085l1.9463-5.4808h3.907v-1.5748h-3.3479l1.9466-5.4808h10.001l-0.69356 1.953h-6.6509v1.5748h6.0918l-0.69356 1.953h-3.6752v1.5748h3.1161l-4.4524 12.536m7.5173-21.167h-10.001l3.9148-11.023h10.001l-3.9144 11.023" fill="#34599a"/>
   <path d="m304.58 157.78h-10.001l0.55915-1.5748h10.001l-0.5595 1.5748" fill="#fdfefe"/>
   <path d="m303.32 161.3h-6.0918v-1.5748h6.6509l-0.55916 1.5748" fill="#fdfefe"/>
   <path d="m295.98 164.83h-3.907l0.55915-1.5748h3.3479v1.5748" fill="#fc6e5d"/>
   <path d="m302.07 164.83h-3.1161v-1.5748h3.6752l-0.55915 1.5748" fill="#84d9e7"/>
   <path d="m297.23 171.89h-7.668l0.5595-1.5748h7.1085v1.5748" fill="#fdfefe"/>
   <path d="m297.06 178.94h-10.001l0.55951-1.5748h10.001l-0.55915 1.5748" fill="#fc6e5d"/>
   <path d="m289.89 182.47h-4.0862l0.55916-1.5748h3.5271v1.5748" fill="#fdfefe"/>
   <path d="m294.55 186h-10.001l0.5595-1.5748h10.001l-0.5595 1.5748" fill="#fc6e5d"/>
   <g fill="#fdfefe">
    <path d="m286.65 193.05h-4.6016l0.55915-1.5748h4.0425v1.5748"/>
    <path d="m290.79 196.58h-10.001l0.55916-1.5748h10.001l-0.55916 1.5748"/>
    <path d="m288.41 200.11h-8.8713l0.55915-1.5748h8.3122v1.5748"/>
    <path d="m286.65 203.64h-8.3605l0.55951-1.5748h7.801v1.5748"/>
   </g>
   <path d="m287.04 207.17h-10.001l0.55915-1.5748h10.001l-0.5595 1.5748" fill="#61d564"/>
   <path d="m285.78 210.69h-10.001l0.55951-1.5748h10.001l-0.55916 1.5748" fill="#fdfefe"/>
   <path d="m284.53 214.22h-10.001l0.55915-1.5748h10.001l-0.5595 1.5748" fill="#fdfefe"/>
   <path d="m282.72 219.31h-10.001l0.50483-1.4211h10.001l-0.50448 1.4211" fill="#1cc2d7"/>
   <path d="m254.71 217.89h-7.5748c-0.20461-0.37924-0.32138-0.81234-0.32138-1.2717v-68.743c0-1.4813 1.2118-2.6928 2.6928-2.6928h31.025l-2.6617 7.4948h-14.197v1.5748h13.638l-1.9466 5.4808h-8.1636v1.5748h7.6045l-0.69391 1.953h-10.438v1.5748h9.8792l-0.69357 1.953h-5.6578v1.5748h5.0987l-0.69356 1.953h-7.9329v1.5748h7.3734l-0.69356 1.953h-6.6798v1.5748h6.1207l-4.4524 12.536h-1.6683v1.5748h1.1091l-0.69356 1.953h-0.41557v1.1698l-8.9627 25.237m-1.4961-5.2401v1.5748h1.5748v-1.5748h-1.5748m0-3.5278v1.5748h1.5748v-1.5748h-1.5748m0-3.5278v1.5748h1.5748v-1.5748h-1.5748m0-3.5278v1.5748h1.5748v-1.5748h-1.5748m0-3.5278v1.5748h1.5748v-1.5748h-1.5748m0-3.5278v1.5748h1.5748v-1.5748h-1.5748m0-3.5278v1.5748h1.5748v-1.5748h-1.5748m0-3.5278v1.5748h1.5748v-1.5748h-1.5748m0-3.5278v1.5748h1.5748v-1.5748h-1.5748m0-3.5278v1.5748h1.5748v-1.5748h-1.5748m0-3.5278v1.5748h1.5748v-1.5748h-1.5748m0-3.5278v1.5748h1.5748v-1.5748h-1.5748m0-3.5278v1.5748h1.5748v-1.5748h-1.5748m0-3.5278v1.5748h1.5748v-1.5748h-1.5748m0-3.5278v1.5748h1.5748v-1.5748h-1.5748m0-3.5278v1.5748h1.5748v-1.5748h-1.5748m10.459-3.5278v1.5748h9.0459v-1.5748h-9.0459m-10.459 0v1.5748h1.5748v-1.5748h-1.5748m0-3.5278v1.5748h1.5748v-1.5748h-1.5748" fill="#34599a"/>
   <path d="m277.31 154.25h-13.638v-1.5748h14.197l-0.55915 1.5748" fill="#fdfefe"/>
   <path d="m263.68 157.78h9.046v-1.5748h-9.046z" fill="#fdfefe"/>
   <path d="m274.81 161.3h-7.6045v-1.5748h8.1636l-0.55916 1.5748" fill="#61d564"/>
   <path d="m273.56 164.83h-9.8792v-1.5748h10.438l-0.55915 1.5748" fill="#fc6e5d"/>
   <g fill="#fdfefe">
    <path d="m272.3 168.36h-5.0987v-1.5748h5.6578l-0.55915 1.5748"/>
    <path d="m271.05 171.89h-7.3734v-1.5748h7.9329l-0.5595 1.5748"/>
    <path d="m269.8 175.42h-6.1207v-1.5748h6.6798l-0.55916 1.5748"/>
    <path d="m264.79 189.53h-1.1091v-1.5748h1.6683l-0.55915 1.5748"/>
    <path d="m263.68 192.65v-1.1698h0.41557l-0.41557 1.1698"/>
   </g>
   <g fill="#7d9fc6">
    <path d="m253.22 154.25h1.5748v-1.5748h-1.5748z"/>
    <path d="m253.22 157.78h1.5748v-1.5748h-1.5748z"/>
    <path d="m253.22 161.3h1.5748v-1.5748h-1.5748z"/>
    <path d="m253.22 164.83h1.5748v-1.5748h-1.5748z"/>
    <path d="m253.22 168.36h1.5748v-1.5748h-1.5748z"/>
    <path d="m253.22 171.89h1.5748v-1.5748h-1.5748z"/>
    <path d="m253.22 175.42h1.5748v-1.5748h-1.5748z"/>
    <path d="m253.22 178.94h1.5748v-1.5748h-1.5748z"/>
    <path d="m253.22 182.47h1.5748v-1.5748h-1.5748z"/>
    <path d="m253.22 186h1.5748v-1.5748h-1.5748z"/>
    <path d="m253.22 189.53h1.5748v-1.5748h-1.5748z"/>
    <path d="m253.22 193.05h1.5748v-1.5748h-1.5748z"/>
    <path d="m253.22 196.58h1.5748v-1.5748h-1.5748z"/>
    <path d="m253.22 200.11h1.5748v-1.5748h-1.5748z"/>
    <path d="m253.22 203.64h1.5748v-1.5748h-1.5748z"/>
    <path d="m253.22 207.17h1.5748v-1.5748h-1.5748z"/>
    <path d="m253.22 210.69h1.5748v-1.5748h-1.5748z"/>
    <path d="m253.22 214.22h1.5748v-1.5748h-1.5748z"/>
   </g>
   <path d="m254.21 219.31h-4.6986c-1.0216 0-1.9152-0.57686-2.3714-1.4211h7.5748l-0.50482 1.4211" fill="#1cc2d7"/>
   <path d="m354.53 217.89h-15.508l15.83-44.573v43.301c0 0.45932-0.11642 0.89242-0.32138 1.2717m-11.513-10.551v1.2368l5.3195 2.1897-5.3195 2.1904v1.2365l6.701-2.8462v-1.1606l-6.701-2.8466" fill="#34599a"/>
   <path d="m343.02 214.19v-1.2365l5.3195-2.1904-5.3195-2.1897v-1.2368l6.701 2.8466v1.1606l-6.701 2.8462" fill="#fdfefe"/>
   <path d="m352.16 219.31h-13.642l0.50483-1.4211h15.508c-0.45614 0.8442-1.3497 1.4211-2.3717 1.4211" fill="#1cc2d7"/>
   <path d="m320.9 217.89h-18.309l1.3018-3.6653h6.5497v-1.5748h-5.9902l1.9463-5.4808h14.627v-1.5748h-14.068l3.1994-9.0085h5.7739v-1.5748h-5.2144l3.1993-9.0085h11.54v-1.5748h-10.981l1.9466-5.4808h9.0343v-1.5748h-8.4751l4.4521-12.536h0.4953v-1.3945l0.75777-2.1332h8.7739v-1.5748h-8.2148l0.69356-1.953h12.806v-1.5748h-12.247l3.9148-11.023h18.309l-11.432 32.189h-4.5833v1.5748h4.0241l-1.9466 5.4808h-2.0775v1.5748h1.5184l-3.1993 9.0085h-8.9024v1.5748h8.3428l-7.566 21.304m-11.36-19.351v1.5748h14.152v-1.5748h-14.152" fill="#34599a"/>
   <path d="m336.74 157.78h-12.806l0.55915-1.5748h12.247v1.5748" fill="#fc6e5d"/>
   <path d="m331.46 161.3h-8.7739l0.55915-1.5748h8.2148v1.5748" fill="#fdfefe"/>
   <path d="m321.93 164.83h-0.4953l0.4953-1.3945v1.3945" fill="#84d9e7"/>
   <g fill="#fdfefe">
    <path d="m325.45 178.94h-9.0343l0.55915-1.5748h8.4751v1.5748"/>
    <path d="m334.73 178.94h-4.0241v-1.5748h4.5833l-0.55915 1.5748"/>
    <path d="m325.45 186h-11.54l0.55916-1.5748h10.981v1.5748"/>
   </g>
   <path d="m332.22 186h-1.5184v-1.5748h2.0775l-0.55915 1.5748" fill="#fc6e5d"/>
   <path d="m315.93 196.58h-5.7739l0.5595-1.5748h5.2144v1.5748" fill="#fdfefe"/>
   <path d="m328.46 196.58h-8.3428v-1.5748h8.9024l-0.55951 1.5748" fill="#84d9e7"/>
   <path d="m309.54 200.11h14.152v-1.5748h-14.152z" fill="#fdfefe"/>
   <path d="m321.02 207.17h-14.627l0.55915-1.5748h14.068v1.5748" fill="#61d564"/>
   <path d="m310.44 214.22h-6.5497l0.55951-1.5748h5.9902v1.5748" fill="#fdfefe"/>
   <path d="m320.39 219.31h-18.309l0.50447-1.4211h18.309l-0.50448 1.4211" fill="#1cc2d7"/>
   <path d="m362.06 221.41c0.60149-1.0382 0.95109-2.2404 0.95109-3.5271h-125.93c0 1.2867 0.3496 2.4889 0.95109 3.5271h124.03" fill="#7bd7e2"/>
  </g>
 </g>
</svg>
