<?xml version="1.0" encoding="UTF-8"?>
<svg width="94.192mm" height="70.644mm" version="1.1" viewBox="0 0 94.192 70.644" xmlns="http://www.w3.org/2000/svg" xmlns:cc="http://creativecommons.org/ns#" xmlns:dc="http://purl.org/dc/elements/1.1/" xmlns:rdf="http://www.w3.org/1999/02/22-rdf-syntax-ns#">
 <metadata>
  <rdf:RDF>
   <cc:Work rdf:about="">
    <dc:format>image/svg+xml</dc:format>
    <dc:type rdf:resource="http://purl.org/dc/dcmitype/StillImage"/>
    <dc:title/>
   </cc:Work>
  </rdf:RDF>
 </metadata>
 <g transform="translate(-69.321 -184.66)">
  <g id="graduate-laptop-hand-screen-education" transform="matrix(.56444 0 0 .56444 96.732 202.24)">
   <g fill="#78b9eb">
    <path d="m42 49.5v5.5h-19v-5.5a1.5 1.5 0 0 0-3 0v-5a1.5 1.5 0 0 0-3 0v-1a1.5 1.5 0 0 0-3 0v2a1.5 1.5 0 0 0-3 0v2a1.5 1.5 0 0 0-3 0v7.5h-5v-20h58v20h-4v-7.5a1.5 1.5 0 0 0-3 0v-2a1.5 1.5 0 0 0-3 0v-2a1.5 1.5 0 0 0-3 0v1a1.5 1.5 0 0 0-3 0v5a1.5 1.5 0 0 0-3 0z"/>
    <path d="m58 9h-5v-3h6a2.006 2.006 0 0 1 2 2v27h-3z"/>
    <path d="m51 19v3h-4v-3a2.006 2.006 0 0 1 2-2 2.015 2.015 0 0 1 2 2z"/>
    <path d="M 43.3,14.65 45,31 H 19 L 20.7,14.65 32,20 Z"/>
    <path d="m34 11a2 2 0 1 0-2 2 2.006 2.006 0 0 0 2-2zm17 0-2 0.95-5.7 2.7-11.3 5.35-11.3-5.35-7.7-3.65 4.75-2 7.13-3 7.12-3 7.13 3 7.12 3z"/>
    <path d="m6 9v26h-3v-27a2.006 2.006 0 0 1 2-2h6v3z"/>
   </g>
   <g fill="#006df0">
    <path d="m7 38h2v2h-2z"/>
    <path d="m11 38h2v2h-2z"/>
    <path d="m15 38h2v2h-2z"/>
    <path d="m19 38h2v2h-2z"/>
    <path d="m23 38h2v2h-2z"/>
    <path d="m27 38h2v2h-2z"/>
    <path d="m35 38h2v2h-2z"/>
    <path d="m39 38h2v2h-2z"/>
    <path d="m43 38h2v2h-2z"/>
    <path d="m47 38h2v2h-2z"/>
    <path d="m51 38h2v2h-2z"/>
    <path d="m55 38h2v2h-2z"/>
    <path d="m31 38h2v2h-2z"/>
    <path d="m23 42h2v2h-2z"/>
    <path d="m27 42h2v2h-2z"/>
    <path d="m35 42h2v2h-2z"/>
    <path d="m39 42h2v2h-2z"/>
    <path d="m31 42h2v2h-2z"/>
    <path d="m27 46h2v2h-2z"/>
    <path d="m35 46h2v2h-2z"/>
    <path d="m31 46h2v2h-2z"/>
    <path d="m50 16.18v-3.6l1.43-0.68a1 1 0 0 0-0.04-1.82l-19-8a0.963 0.963 0 0 0-0.78 0l-19 8a1 1 0 0 0-0.04 1.82l7.06 3.35-1.62 15.65a0.99 0.99 0 0 0 0.25 0.77 1 1 0 0 0 0.74 0.33h26a1 1 0 0 0 0.74-0.33 0.99 0.99 0 0 0 0.25-0.77l-1.62-15.65 3.63-1.72v2.65a3.01 3.01 0 0 0-2 2.82v3a1 1 0 0 0 1 1h4a1 1 0 0 0 1-1v-3a3.01 3.01 0 0 0-2-2.82zm-29.89 13.82 1.43-13.85 10.03 4.75a0.974 0.974 0 0 0 0.86 0l10.03-4.75 1.43 13.85zm11.89-11.11-16.55-7.84 16.55-6.97 14.05 5.92h-11.23a3 3 0 1 0 0 2h11.73zm1-7.89a1 1 0 1 1-1-1 1 1 0 0 1 1 1zm17 10h-2v-2a1 1 0 0 1 2 0z"/>
    <path d="m59 5h-11v2h11a1 1 0 0 1 1 1v26h-1v-25a1 1 0 0 0-1-1h-5v2h4v24h-50v-24h4v-2h-5a1 1 0 0 0-1 1v25h-1v-26a1 1 0 0 1 1-1h11v-2h-11a3.009 3.009 0 0 0-3 3v47a1 1 0 0 0 1 1h4.46l1.54 2.3v3.7h2v-4a0.967 0.967 0 0 0-0.17-0.55l-1.83-2.75v-7.2a0.5 0.5 0 0 1 1 0v2.5h2v-4.5a0.5 0.5 0 0 1 1 0v3.5h2v-5.5a0.5 0.5 0 0 1 1 0v5.5h2v-4.5a0.5 0.5 0 0 1 1 0v7.5h2v-2.5a0.5 0.5 0 0 1 1 0v5.96l-2.55 1.71a1 1 0 0 0-0.45 0.83v4h2v-3.46l2.55-1.71a1 1 0 0 0 0.45-0.83h17a1 1 0 0 0 0.45 0.83l2.55 1.71v3.46h2v-4a1 1 0 0 0-0.45-0.83l-2.55-1.71v-5.96a0.5 0.5 0 0 1 1 0v2.5h2v-7.5a0.5 0.5 0 0 1 1 0v4.5h2v-5.5a0.5 0.5 0 0 1 1 0v5.5h2v-3.5a0.5 0.5 0 0 1 1 0v4.5h2v-2.5a0.5 0.5 0 0 1 1 0v7.2l-1.83 2.75a0.967 0.967 0 0 0-0.17 0.55v4h2v-3.7l1.54-2.3h3.46a1 1 0 0 0 1-1v-47a3.009 3.009 0 0 0-3-3zm1 49h-2v-6.5a2.5 2.5 0 0 0-2.5-2.5 2.352 2.352 0 0 0-0.54 0.06 2.5 2.5 0 0 0-2.46-2.06 2.352 2.352 0 0 0-0.54 0.06 2.494 2.494 0 0 0-4.57-0.89 2.429 2.429 0 0 0-0.89-0.17 2.5 2.5 0 0 0-2.5 2.5v2.55a2.734 2.734 0 0 0-0.5-0.05 2.5 2.5 0 0 0-2.5 2.5v4.5h-17v-4.5a2.5 2.5 0 0 0-2.5-2.5 2.734 2.734 0 0 0-0.5 0.05v-2.55a2.5 2.5 0 0 0-2.5-2.5 2.429 2.429 0 0 0-0.89 0.17 2.494 2.494 0 0 0-4.57 0.89 2.352 2.352 0 0 0-0.54-0.06 2.5 2.5 0 0 0-2.46 2.06 2.352 2.352 0 0 0-0.54-0.06 2.5 2.5 0 0 0-2.5 2.5v6.5h-3v-18h56z"/>
    <path d="m25 50h14v2h-14z"/>
   </g>
  </g>
 </g>
</svg>
