<?xml version="1.0" encoding="UTF-8"?>
<svg width="94.192mm" height="70.644mm" version="1.1" viewBox="0 0 94.192 70.644" xmlns="http://www.w3.org/2000/svg" xmlns:cc="http://creativecommons.org/ns#" xmlns:dc="http://purl.org/dc/elements/1.1/" xmlns:rdf="http://www.w3.org/1999/02/22-rdf-syntax-ns#">
 <metadata>
  <rdf:RDF>
   <cc:Work rdf:about="">
    <dc:format>image/svg+xml</dc:format>
    <dc:type rdf:resource="http://purl.org/dc/dcmitype/StillImage"/>
    <dc:title/>
   </cc:Work>
  </rdf:RDF>
 </metadata>
 <g transform="translate(314.7 -197.51)">
  <g transform="matrix(.072469 0 0 .072469 -278.99 210.56)">
   <path d="m238 512.74c0-76.8-128.54-205.34-205.34-205.34 76.8 0 205.34-128.54 205.34-205.34 0 76.8 128.54 205.34 205.34 205.34-76.8 0-205.34 128.54-205.34 205.34z" fill="#ffd83b"/>
   <path d="m238 388.27c0-30.24-50.64-80.88-80.88-80.88 30.24 0 80.88-50.64 80.88-80.88 0 30.24 50.64 80.88 80.88 80.88-30.256 0-80.88 50.624-80.88 80.88z" fill="#f3c432"/>
   <g fill="#ffd83b">
    <path d="m381.17 226.51c0-36.992-61.92-98.912-98.912-98.912 36.992 0 98.912-61.92 98.912-98.912 0 36.992 61.92 98.912 98.912 98.912-36.992 0-98.912 61.92-98.912 98.912z"/>
    <path d="m92.976 505.36c0-19.056-31.888-50.944-50.944-50.944 19.056 0 50.944-31.888 50.944-50.944 0 19.056 31.888 50.944 50.944 50.944-19.056 0.016-50.944 31.904-50.944 50.944z"/>
    <path d="m158.69 141.41c0-26.448-44.256-70.704-70.704-70.704 26.448 0 70.704-44.256 70.704-70.704 0 26.448 44.256 70.704 70.704 70.704-26.448 0-70.704 44.256-70.704 70.704z"/>
   </g>
  </g>
 </g>
</svg>
