<?xml version="1.0" encoding="UTF-8"?>
<svg width="94.192mm" height="70.644mm" version="1.1" viewBox="0 0 94.192 70.644" xmlns="http://www.w3.org/2000/svg">
 <g transform="translate(147.64 122.26)">
  <g transform="translate(-98.365 -217.02)" fill="#788095">
   <path d="m23.001 107.72 0.04579-0.0305c-0.09159-0.16791-0.22897-0.32056-0.36636-0.39689l-7.373-4.2436c-0.12212-0.0763-0.29003-0.10686-0.47321-0.10686-0.18318 0-0.35109 0.0458-0.47321 0.10686l-7.3272 4.2589c-0.2595 0.15265-0.44268 0.53427-0.44268 0.82431v8.5026c0 0.16792 0.03053 0.3511 0.13738 0.51902l-0.03053 0.0153c0.07632 0.12211 0.18318 0.22897 0.29003 0.29003l7.3577 4.2589c0.12212 0.0763 0.29003 0.10686 0.47321 0.10686 0.18318 0 0.35109-0.0458 0.47321-0.10686l7.3272-4.2589c0.2595-0.15265 0.44268-0.53428 0.44268-0.82431v-8.5178c0.01527-0.12212 0-0.25951-0.06106-0.39689zm-8.1668 10.685c-3.3278 0-6.0297-2.7019-6.0297-6.0297 0-3.3278 2.7019-6.0296 6.0297-6.0296 2.2439 0 4.1979 1.2365 5.2359 3.053l-1.9844 1.1449c-0.64113-1.1449-1.8623-1.9081-3.2514-1.9081-2.0608 0-3.7399 1.6792-3.7399 3.7399 0 2.0608 1.6791 3.7399 3.7399 3.7399 1.3891 0 2.6103-0.76325 3.2514-1.8929l1.9692 1.1601c-1.038 1.8013-2.9919 3.0225-5.2206 3.0225zm7.7851-6.335h-0.48848l-0.13738 0.61059h0.62586v0.76325h-0.76325l-0.18318 0.9159h-0.74798l0.18318-0.9159h-0.58007l-0.18318 0.9159h-0.73272l0.18318-0.9159h-0.38162v-0.76325h0.53427l0.13738-0.61059h-0.67166v-0.76325h0.80904l0.18318-0.9159h0.74798l-0.18318 0.9159h0.58007l0.18318-0.9159h0.73272l-0.18318 0.9159h0.33583zm-1.9386 0.61059h0.58007l0.13738-0.61059h-0.58007z" stroke-width=".15265"/>
   <path d="m-32.232 144.78c-2.4298 0.67885 1.4783 2.0812 4.5723 0.7557-0.5068-0.197-0.87027-0.42425-0.87027-0.42425-1.3796 0.2608-2.0196 0.28131-3.2719 0.13825-1.0336-0.11837-0.43007-0.4697-0.43007-0.4697zm4.2018-1.3243c-1.8287 0.35183-2.8849 0.34057-4.2227 0.20257-1.0345-0.10698-0.35727-0.60833-0.35727-0.60833-2.676 0.88824 1.4897 1.8961 5.2299 0.80216-0.39753-0.14003-0.64985-0.3964-0.64985-0.3964zm1.433-7.669c1.24e-4 0-5.4099 1.3507-2.8262 4.3282 0.76266 0.878-0.20003 1.6674-0.20003 1.6674s1.9356-0.99903 1.0469-2.2506c-0.83039-1.1666-1.467-1.7462 1.9793-3.7449zm1.2658 10.273s0.44678 0.36841-0.49223 0.65315c-1.7854 0.54084-7.4324 0.70391-9.0009 0.0216-0.56339-0.24535 0.49363-0.58554 0.82621-0.65732 0.34676-0.0751 0.54477-0.0614 0.54477-0.0614-0.62694-0.44147-4.053 0.86723-1.7398 1.2426 6.3075 1.0224 11.498-0.46046 9.8619-1.1987zm-2.1678-3.8403c0.30322-0.20686 0.72202-0.38652 0.72202-0.38652s-1.1931 0.21333-2.3818 0.31322c-1.4552 0.12205-3.0161 0.1461-3.7996 0.0413-1.855-0.24802 1.017-0.93029 1.017-0.93029s-1.1156-0.0754-2.487 0.58795c-1.622 0.78431 4.0122 1.1418 6.9294 0.37437zm0.71012 1.9174c-0.01368 0.0367-0.05925 0.078-0.05925 0.078 3.9593-1.0408 2.5036-3.6688 0.61048-3.0037-0.1661 0.0588-0.2532 0.19536-0.2532 0.19536s0.10496-0.0423 0.33904-0.0912c0.957-0.1994 2.3281 1.2811-0.63707 2.8215zm-3.3459-2.9083c-0.58415-1.3204-2.565-2.4755 9.57e-4 -4.5019 3.1994-2.5254 1.5577-4.1682 1.5577-4.1682 0.66214 2.609-2.336 3.3972-3.4182 5.022-0.73696 1.1072 0.3617 2.2968 1.8596 3.6481zm3.453 6.5515c-2.4291 0.45729-5.4255 0.40399-7.2021 0.11065 0 0 0.36386 0.30132 2.234 0.42172 2.8455 0.18193 7.2164-0.10128 7.3197-1.4478 1.24e-4 0-0.19877 0.51046-2.3517 0.91546z" stroke-width=".1266"/>
   <path d="m16.444 130.88v19.389h19.389v-19.389zm10.256 16.521c-0.28618 0.58151-0.83248 0.96355-1.4655 1.148-0.9727 0.22336-1.9031 0.0961-2.5952-0.31938-0.46316-0.28416-0.82488-0.72158-1.0704-1.2255l1.4767-0.90431c0.0129 5e-3 0.05165 0.0755 0.10345 0.16613 0.18831 0.3155 0.35071 0.53886 0.66993 0.69568 0.31364 0.10699 1.0022 0.17543 1.268-0.37646 0.1624-0.28076 0.11074-1.1832 0.11074-2.1816-1.51e-4 -1.569 0.0072-3.1314 0.0072-4.6825h1.8162c0 1.7062 0.0094 3.3222 0 4.9872 0.0041 1.0206 0.09244 1.9305-0.32108 2.6929zm7.5344-0.51311c-0.6313 2.1595-4.1511 2.2296-5.5576 0.80286-0.29719-0.33582-0.48348-0.51125-0.66077-0.89888 0.74748-0.42996 0.74748-0.42996 1.4748-0.85079 0.39507 0.60726 0.76036 0.94122 1.4176 1.0779 0.89158 0.10891 1.7886-0.19746 1.5874-1.1444-0.20676-0.77337-1.8257-0.96152-2.9274-1.7886-1.1185-0.75119-1.3806-2.5766-0.46146-3.6195 0.30634-0.38577 0.82876-0.67366 1.3769-0.81201l0.57205-0.074c1.0983-0.0222 1.7849 0.26788 2.2888 0.83063 0.14022 0.14207 0.2547 0.29532 0.46875 0.62742-0.58508 0.37289-0.58322 0.36932-1.4213 0.91189-0.179-0.38559-0.47604-0.62756-0.78999-0.73273-0.48736-0.14767-1.1019 0.0128-1.2294 0.52783-0.0442 0.15868-0.03505 0.30635 0.03523 0.56849 0.19746 0.45029 0.8601 0.64604 1.4545 0.91919 1.711 0.69396 2.2888 1.438 2.4309 2.3237 0.13681 0.76252-0.03306 1.2572-0.05894 1.331z" stroke-width=".15511"/>
   <path d="m-31.086 113.5h4.71c1.3111 0 2.344-1.1094 2.344-2.426v-4.4902c0-1.278-1.0713-2.2381-2.3511-2.4514-0.80991-0.13487-1.6468-0.19626-2.4531-0.19238-0.80603 4e-3 -1.5526 0.0724-2.2299 0.19238-1.9957 0.3523-2.3346 1.0905-2.3346 2.4514v1.7473h4.6843v0.64611h-6.4973c-1.3704 0-2.5706 0.82508-2.9458 2.3924-0.43306 1.7962-0.45228 2.8944 0 4.77 0.33518 1.3959 1.1356 2.3679 2.5061 2.3679h1.6066v-2.1076c0-1.5566 1.3614-2.8998 2.9608-2.8998zm-0.29689-6.3174c-0.48879 0-0.88486-0.40043-0.88486-0.89567 0-0.49736 0.39591-0.9015 0.88486-0.9015 0.48701 0 0.88502 0.40414 0.88502 0.9015-1.59e-4 0.49524-0.39817 0.89567-0.88502 0.89567zm12.081 4.187c-0.33888-1.3646-0.98581-2.3924-2.3582-2.3924h-1.7255v2.0968c0 1.6234-1.4205 2.9106-2.9901 2.9106h-4.71c-1.2903 0-2.3147 1.1834-2.3147 2.4756v4.4905c0 1.2777 1.0895 2.0294 2.336 2.3961 1.4929 0.43887 2.9066 0.51818 4.6926 0 1.1871-0.34391 2.3401-1.0356 2.3401-2.3961v-1.7972h-4.6843v-0.64612h7.0559c1.3704 0 1.8813-0.933 2.3582-2.368 0.49218-1.4772 0.47102-2.875 0-4.7698zm-6.777 8.982c0.48895 0 0.88502 0.40043 0.88502 0.89599 0 0.49687-0.39591 0.90118-0.88502 0.90118-0.48701 0-0.88486-0.40414-0.88486-0.90118 0-0.49556 0.39785-0.89599 0.88486-0.89599z" stroke-width=".16153"/>
   <path d="m5.0667 123.32 0.05711-0.038c-0.11419-0.20936-0.28548-0.39968-0.45677-0.49484l-9.1926-5.291c-0.15226-0.0952-0.36161-0.13322-0.59-0.13322-0.22839 0-0.43774 0.0571-0.59 0.13322l-9.1355 5.31c-0.32355 0.19032-0.55194 0.66613-0.55194 1.0277v10.601c0 0.20935 0.03805 0.43774 0.17129 0.64709l-0.03805 0.0191c0.09516 0.15226 0.22839 0.28548 0.36161 0.36161l9.1736 5.31c0.15226 0.0952 0.36162 0.13323 0.59 0.13323s0.43774-0.0571 0.59-0.13323l9.1355-5.31c0.32355-0.19032 0.55194-0.66613 0.55194-1.0277v-10.62c0.01906-0.15226 0-0.32355-0.07613-0.49484zm-6.7565 6.1855v-0.76129h0.95161v-0.95161h0.95162v0.95161h0.95162v0.76129h-0.95162v0.95161h-0.95162v-0.95161zm0.62806-2.6645c-0.79936-1.4274-2.3219-2.379-4.0539-2.379-2.5694 0-4.6629 2.0935-4.6629 4.6629s2.0936 4.6629 4.6629 4.6629c1.7319 0 3.2545-0.95162 4.0539-2.36l2.4552 1.4464c-1.2942 2.2458-3.7303 3.7684-6.509 3.7684-4.149 0-7.5178-3.3687-7.5178-7.5178s3.3687-7.5177 7.5178-7.5177c2.7977 0 5.2339 1.5416 6.5281 3.8064zm5.6526 2.6645h-0.95162v0.95161h-0.76129v-0.95161h-1.1419v-0.76129h1.1419v-0.95161h0.76129v0.95161h0.95162z" stroke-width=".19032"/>
   <path d="m-2.9576 145.96c-7.1082 0-12.871 2.9204-12.871 6.5228s5.7628 6.5227 12.871 6.5227c7.1082 0 12.871-2.9204 12.871-6.5227s-5.7628-6.5228-12.871-6.5228zm-3.3491 7.7935c-0.30717 0.28737-0.64825 0.40598-1.0239 0.52817-0.37564 0.12241-0.85366 0.0971-1.4349 0.0971h-1.3174l-0.3651 2.1068h-1.5381l1.3726-7.163h2.9579c0.8899 0 1.539 0.25597 1.9471 0.72304 0.40808 0.46707 0.53069 1.1301 0.36805 1.9671-0.0672 0.34488-0.18034 0.66552-0.34003 0.9512-0.1599 0.28589-0.36868 0.55281-0.62613 0.78961zm4.4897 0.62529 0.60696-3.0379c0.0691-0.35563 0.04382-0.61982-0.07605-0.74896-0.12009-0.12935-0.37542-0.21595-0.76581-0.21595h-1.2198l-0.78603 4.0028h-1.5261l1.3726-6.9523h1.5261l-0.36489 1.8961h1.3595c0.85556 0 1.4454 0.17169 1.7701 0.47001s0.42198 0.70704 0.29221 1.3753l-0.63856 3.2109zm8.4816-2.3549c-0.067 0.34487-0.18034 0.66005-0.33982 0.94551-0.15969 0.28589-0.36826 0.54733-0.62592 0.78413-0.30717 0.28737-0.64846 0.40598-1.0239 0.52817-0.37542 0.12241-0.85387 0.0971-1.4351 0.0971h-1.3174l-0.36489 2.1068h-1.5381l1.3723-7.163h2.9581c0.8899 0 1.539 0.25597 1.9469 0.72304 0.40766 0.46707 0.53048 1.1414 0.36784 1.9782zm-2.8976-1.6479h-1.0536l-0.57451 2.9495h0.93582c0.61981 0 1.082-0.0611 1.3854-0.29495 0.3038-0.23342 0.50836-0.59579 0.61475-1.1421 0.10197-0.5248 0.05562-0.93413-0.13905-1.1499-0.19488-0.21573-0.58442-0.36258-1.1688-0.36258zm-12.005 0h-1.0538l-0.57451 2.9495h0.93561c0.62002 0 1.082-0.0611 1.3856-0.29495 0.30358-0.23342 0.50836-0.59579 0.61454-1.1421 0.10197-0.5248 0.05562-0.93413-0.13905-1.1499-0.19466-0.21573-0.58399-0.36258-1.1684-0.36258z" stroke-width=".21068"/>
  </g>
 </g>
</svg>
